# File created by Blade
# Date/Time:  Tue Jan 27 18:12:42 2015
# Frame Rate: 120.000 fps
#------------------------------------------------------
:FULLY-SPECIFIED
:DEGREES
1972
root -1.284754 31.798287 -6.663851 5.682463 7.382682 3.446039
Spine -8.043570 -6.269614 -2.543530
Head 15.203880 -37.722223 -0.517044
LeftShoulder -12.564283 17.437659 3.669801
LeftArm 28.197862 42.597706 -65.989924
LeftForeArm -1.644865 0.000000 15.862542
LeftHand -10.550768 -0.000000 -5.082801
LeftHandThumb1 -26.253704 0.000000 33.147579
RightShoulder -1.112492 10.634639 -13.695920
RightArm 16.011447 6.694685 53.414547
RightForeArm 29.121006 -0.000000 105.910906
RightHand -10.676952 -0.000000 8.348502
RightHandThumb1 -24.326973 -0.000000 -32.862282
LeftUpLeg -1.788886 -1.261260 -1.460961
LeftLeg 1.617170 -0.000000 -0.000000
LeftFoot -18.569530 16.447128 -24.511002
LeftToeBase 8.721396 -0.000000 -0.000000
RightUpLeg 1.353278 -4.482922 -4.178405
RightLeg -3.364435 -0.000000 0.000000
RightFoot -15.644760 -13.684826 9.922718
RightToeBase 5.129046 -0.000000 -0.000000
1973
root -1.284697 31.798228 -6.666338 5.677812 7.361960 3.443803
Spine -8.048725 -6.222493 -2.573802
Head 15.229478 -37.814976 -0.411068
LeftShoulder -12.535978 17.443396 3.692571
LeftArm 28.219628 42.582918 -65.998534
LeftForeArm -1.625503 -0.000000 15.846824
LeftHand -10.519088 -0.000000 -5.120383
LeftHandThumb1 -26.253704 0.000000 33.147579
RightShoulder -1.124234 10.373503 -13.710120
RightArm 16.601859 4.754136 52.336576
RightForeArm 28.858053 -0.000000 105.384932
RightHand -10.788288 -0.000000 8.677919
RightHandThumb1 -24.326973 -0.000000 -32.862282
LeftUpLeg -1.786030 -1.249195 -1.460627
LeftLeg 1.611797 -0.000000 -0.000000
LeftFoot -18.575677 16.443635 -24.545068
LeftToeBase 8.729465 -0.000000 -0.000000
RightUpLeg 1.349439 -4.470383 -4.178479
RightLeg -3.366552 -0.000000 0.000000
RightFoot -15.635151 -13.689547 9.901796
RightToeBase 5.158460 -0.000000 -0.000000
1974
root -1.284818 31.798242 -6.668242 5.667396 7.347879 3.441850
Spine -8.055729 -6.198014 -2.601575
Head 15.278065 -37.885671 -0.326852
LeftShoulder -12.514671 17.450069 3.710691
LeftArm 28.232138 42.575268 -66.011452
LeftForeArm -1.613598 -0.000000 15.828967
LeftHand -10.545851 -0.000000 -5.108156
LeftHandThumb1 -26.253704 0.000000 33.147579
RightShoulder -1.110827 10.122645 -13.734406
RightArm 17.226620 2.865231 51.264887
RightForeArm 28.440846 -0.000000 104.817971
RightHand -10.946279 -0.000000 8.798463
RightHandThumb1 -24.326973 -0.000000 -32.862282
LeftUpLeg -1.777998 -1.232118 -1.461223
LeftLeg 1.614973 -0.000000 -0.000000
LeftFoot -18.578711 16.434349 -24.549098
LeftToeBase 8.676200 -0.000000 -0.000000
RightUpLeg 1.350564 -4.467240 -4.177477
RightLeg -3.361901 -0.000000 0.000000
RightFoot -15.623267 -13.682503 9.899745
RightToeBase 5.090145 -0.000000 -0.000000
1975
root -1.284985 31.798394 -6.669943 5.659470 7.333992 3.434159
Spine -8.063719 -6.159905 -2.624068
Head 15.308203 -37.967647 -0.227679
LeftShoulder -12.506407 17.548245 3.694095
LeftArm 28.358880 42.513730 -65.943123
LeftForeArm -1.597972 -0.000000 15.821188
LeftHand -10.515626 -0.000000 -5.054505
LeftHandThumb1 -26.253704 0.000000 33.147579
RightShoulder -1.085688 9.937066 -13.740200
RightArm 17.810356 0.967360 50.162683
RightForeArm 28.035646 -0.000000 104.279407
RightHand -11.122208 -0.000000 8.788754
RightHandThumb1 -24.326973 -0.000000 -32.862282
LeftUpLeg -1.764339 -1.232190 -1.456242
LeftLeg 1.596059 -0.000000 -0.000000
LeftFoot -18.577964 16.468623 -24.537136
LeftToeBase 8.695826 -0.000000 -0.000000
RightUpLeg 1.348183 -4.476489 -4.172349
RightLeg -3.355367 -0.000000 0.000000
RightFoot -15.617341 -13.651555 9.884264
RightToeBase 5.137264 -0.000000 -0.000000
1976
root -1.285682 31.797805 -6.673038 5.652559 7.331026 3.429552
Spine -8.058595 -6.142140 -2.646842
Head 15.298434 -38.040420 -0.121375
LeftShoulder -12.497863 17.429343 3.735067
LeftArm 28.231923 42.560789 -66.050150
LeftForeArm -1.606320 -0.000000 15.810545
LeftHand -10.520380 -0.000000 -5.060622
LeftHandThumb1 -26.253704 0.000000 33.147579
RightShoulder -1.067057 9.721573 -13.790213
RightArm 18.462787 -0.876544 49.129931
RightForeArm 27.497108 -0.000000 103.762031
RightHand -11.417286 -0.000000 8.992381
RightHandThumb1 -24.326973 -0.000000 -32.862282
LeftUpLeg -1.762962 -1.232535 -1.451191
LeftLeg 1.596923 -0.000000 -0.000000
LeftFoot -18.582700 16.472907 -24.529957
LeftToeBase 8.698035 -0.000000 -0.000000
RightUpLeg 1.345618 -4.476328 -4.168885
RightLeg -3.349362 -0.000000 0.000000
RightFoot -15.612737 -13.643721 9.877223
RightToeBase 5.118622 -0.000000 -0.000000
1977
root -1.286605 31.797355 -6.674924 5.646213 7.321722 3.426000
Spine -8.056496 -6.112793 -2.677468
Head 15.289084 -38.123731 -0.008510
LeftShoulder -12.505144 17.431300 3.742067
LeftArm 28.257511 42.554061 -66.046283
LeftForeArm -1.564115 -0.000000 15.812951
LeftHand -10.523639 -0.000000 -5.046828
LeftHandThumb1 -26.253704 0.000000 33.147579
RightShoulder -1.070304 9.421359 -13.863105
RightArm 19.236184 -2.656531 48.126112
RightForeArm 26.993794 -0.000000 103.125245
RightHand -11.399410 -0.000000 9.423948
RightHandThumb1 -24.326973 -0.000000 -32.862282
LeftUpLeg -1.759874 -1.213888 -1.447940
LeftLeg 1.596906 -0.000000 -0.000000
LeftFoot -18.576070 16.475227 -24.496380
LeftToeBase 8.693825 -0.000000 -0.000000
RightUpLeg 1.345752 -4.464092 -4.165232
RightLeg -3.348648 -0.000000 0.000000
RightFoot -15.621036 -13.647052 9.887118
RightToeBase 5.152603 -0.000000 -0.000000
1978
root -1.288013 31.797050 -6.677097 5.635885 7.317836 3.418828
Spine -8.052942 -6.084972 -2.702736
Head 15.289541 -38.195606 0.089758
LeftShoulder -12.512424 17.458239 3.742771
LeftArm 28.341458 42.572971 -65.993285
LeftForeArm -1.610168 0.000000 15.795091
LeftHand -10.511616 -0.000000 -4.998900
LeftHandThumb1 -26.253704 0.000000 33.147579
RightShoulder -1.018605 9.298255 -13.863681
RightArm 19.831081 -4.549373 47.003378
RightForeArm 26.599153 0.000000 102.574327
RightHand -11.568849 -0.000000 9.440915
RightHandThumb1 -24.326973 -0.000000 -32.862282
LeftUpLeg -1.754241 -1.189684 -1.440793
LeftLeg 1.594822 -0.000000 -0.000000
LeftFoot -18.584411 16.451751 -24.527894
LeftToeBase 8.750680 -0.000000 -0.000000
RightUpLeg 1.347281 -4.459275 -4.156488
RightLeg -3.343051 -0.000000 0.000000
RightFoot -15.622941 -13.648135 9.885268
RightToeBase 5.139682 -0.000000 -0.000000
1979
root -1.288872 31.796663 -6.679291 5.625919 7.320803 3.414345
Spine -8.048519 -6.053062 -2.733941
Head 15.282805 -38.265371 0.200255
LeftShoulder -12.501982 17.462267 3.754935
LeftArm 28.351295 42.555172 -66.000736
LeftForeArm -1.602425 -0.000000 15.806205
LeftHand -10.511246 -0.000000 -5.001719
LeftHandThumb1 -26.253704 0.000000 33.147579
RightShoulder -1.002166 9.058011 -13.921817
RightArm 20.594652 -6.365338 45.921756
RightForeArm 26.283658 -0.000000 101.972205
RightHand -11.845175 0.000000 9.557817
RightHandThumb1 -24.326973 -0.000000 -32.862282
LeftUpLeg -1.744944 -1.215611 -1.434604
LeftLeg 1.585098 -0.000000 -0.000000
LeftFoot -18.601319 16.456850 -24.574652
LeftToeBase 8.716527 -0.000000 -0.000000
RightUpLeg 1.350251 -4.457557 -4.152611
RightLeg -3.336460 -0.000000 0.000000
RightFoot -15.625336 -13.638526 9.902581
RightToeBase 5.135843 -0.000000 -0.000000
1980
root -1.290311 31.796468 -6.681239 5.615340 7.320048 3.406890
Spine -8.038143 -5.973047 -2.768044
Head 15.256908 -38.387109 0.300371
LeftShoulder -12.471176 17.460973 3.769944
LeftArm 28.406162 42.583968 -65.960477
LeftForeArm -1.634268 -0.000000 15.806539
LeftHand -10.524682 -0.000000 -4.982254
LeftHandThumb1 -26.253704 0.000000 33.147579
RightShoulder -0.995418 8.905066 -13.967016
RightArm 21.274643 -8.214294 44.810764
RightForeArm 26.103944 0.000000 101.362716
RightHand -11.944758 -0.000000 9.704636
RightHandThumb1 -24.326973 -0.000000 -32.862282
LeftUpLeg -1.745195 -1.185133 -1.426470
LeftLeg 1.597845 -0.000000 -0.000000
LeftFoot -18.569811 16.469884 -24.476454
LeftToeBase 8.658320 -0.000000 -0.000000
RightUpLeg 1.355987 -4.448358 -4.144207
RightLeg -3.336497 -0.000000 0.000000
RightFoot -15.622015 -13.641434 9.911632
RightToeBase 5.109071 -0.000000 -0.000000
1981
root -1.291566 31.796228 -6.684271 5.609649 7.336374 3.403411
Spine -8.040050 -5.985781 -2.781296
Head 15.263221 -38.416835 0.353886
LeftShoulder -12.494690 17.462117 3.757424
LeftArm 28.393390 42.553480 -65.974108
LeftForeArm -1.596504 0.000000 15.831856
LeftHand -10.501613 -0.000000 -4.999169
LeftHandThumb1 -26.253704 0.000000 33.147579
RightShoulder -0.905471 8.754460 -14.011888
RightArm 22.028853 -10.085202 43.649010
RightForeArm 26.042058 0.000000 100.734008
RightHand -12.128469 -0.000000 9.790213
RightHandThumb1 -24.326973 -0.000000 -32.862282
LeftUpLeg -1.748170 -1.191840 -1.420303
LeftLeg 1.597994 -0.000000 -0.000000
LeftFoot -18.585355 16.447230 -24.541489
LeftToeBase 8.735160 -0.000000 -0.000000
RightUpLeg 1.352798 -4.462454 -4.138077
RightLeg -3.324956 -0.000000 0.000000
RightFoot -15.630348 -13.634207 9.926683
RightToeBase 5.142594 -0.000000 -0.000000
1982
root -1.292992 31.795677 -6.686116 5.595714 7.348955 3.400163
Spine -8.038603 -5.987727 -2.789671
Head 15.277422 -38.437026 0.360222
LeftShoulder -12.510214 17.459362 3.741583
LeftArm 28.384843 42.556413 -65.965218
LeftForeArm -1.623736 -0.000000 15.861115
LeftHand -10.524431 -0.000000 -4.975891
LeftHandThumb1 -26.253704 0.000000 33.147579
RightShoulder -0.823134 8.539544 -14.087673
RightArm 22.868299 -11.908066 42.459279
RightForeArm 26.175296 -0.000000 100.057318
RightHand -11.989867 0.000000 10.092964
RightHandThumb1 -24.326973 -0.000000 -32.862282
LeftUpLeg -1.738307 -1.188698 -1.414895
LeftLeg 1.597011 -0.000000 -0.000000
LeftFoot -18.588639 16.444127 -24.519828
LeftToeBase 8.769989 -0.000000 -0.000000
RightUpLeg 1.362853 -4.472287 -4.131773
RightLeg -3.321407 -0.000000 0.000000
RightFoot -15.635514 -13.641956 9.906264
RightToeBase 5.148695 -0.000000 -0.000000
1983
root -1.293817 31.795375 -6.686085 5.584962 7.369234 3.399185
Spine -8.032485 -5.923601 -2.823281
Head 15.260649 -38.536188 0.431942
LeftShoulder -12.482596 17.469848 3.758737
LeftArm 28.400414 42.536388 -65.970833
LeftForeArm -1.637716 0.000000 15.875789
LeftHand -10.535940 -0.000000 -4.972158
LeftHandThumb1 -26.253704 0.000000 33.147579
RightShoulder -0.830328 8.299128 -14.159364
RightArm 23.779083 -13.735841 41.158450
RightForeArm 26.308678 -0.000000 99.399001
RightHand -11.998217 -0.000000 10.167982
RightHandThumb1 -24.326973 -0.000000 -32.862282
LeftUpLeg -1.727188 -1.206130 -1.412149
LeftLeg 1.590223 -0.000000 -0.000000
LeftFoot -18.583778 16.451754 -24.506383
LeftToeBase 8.768625 -0.000000 -0.000000
RightUpLeg 1.380628 -4.479735 -4.129110
RightLeg -3.329733 -0.000000 0.000000
RightFoot -15.629189 -13.658180 9.899251
RightToeBase 5.114435 -0.000000 -0.000000
